<svg width="275" height="73" viewBox="0 0 275 73" fill="none" xmlns="http://www.w3.org/2000/svg">
<path d="M0 1.5C0 2.3 0.5 3 1 3C1.6 3 2 4.3 2 6C2 7.6 1.6 9 1 9C0.5 9 0 9.7 0 10.5C0 11.8 7 12 57 12C107 12 114 11.8 114 10.5C114 9.5 113 9 111 9C108.3 9 108 8.7 108 6C108 3.3 108.3 3 111 3C113 3 114 2.5 114 1.5C114 0.2 107 0 57 0C7 0 0 0.2 0 1.5ZM16 6C16 8.9 15.8 9 11.5 9C7.2 9 7 8.9 7 6C7 3.1 7.2 3 11.5 3C15.8 3 16 3.1 16 6ZM31 6C31 8.9 30.9 9 26 9C21.1 9 21 8.9 21 6C21 3.1 21.1 3 26 3C30.9 3 31 3.1 31 6ZM45 6C45 8.9 44.9 9 40 9C35.1 9 35 8.9 35 6C35 3.1 35.1 3 40 3C44.9 3 45 3.1 45 6ZM61 6V9H55H49V6V3H55H61V6ZM75 6C75 8.9 74.9 9 70 9C65.1 9 65 8.9 65 6C65 3.1 65.1 3 70 3C74.9 3 75 3.1 75 6ZM89 6C89 8.9 88.9 9 84 9C79.1 9 79 8.9 79 6C79 3.1 79.1 3 84 3C88.9 3 89 3.1 89 6ZM103 6C103 8.9 102.9 9 98 9C93.1 9 93 8.9 93 6C93 3.1 93.1 3 98 3C102.9 3 103 3.1 103 6Z" fill="black"/>
<path d="M136 29C136 50.3 136.1 51 138 51C139.8 51 140 50.3 140 44C140 37.8 140.2 37 141.9 37C143.3 37 144.1 38.5 145.6 43.7C147.3 49.7 147.9 50.5 150.2 50.8L152.9 51.1L150.3 44C147.8 37.1 147.7 36.9 149.6 35.6C151.2 34.4 151.5 32.6 151.8 23.3C152.1 13.5 152 12.2 150 9.70001C148.1 7.30001 147.2 7.00001 141.9 7.00001H136V29ZM147 21V31H143.5H140V21V11H143.5H147V21Z" fill="black"/>
<path d="M157 29V51H164C170.3 51 171 50.8 171 49C171 47.3 170.3 47 166 47H161V36.5V26H165C168.3 26 169 25.7 169 24C169 22.3 168.3 22 165 22H161V16.5V11H166C170.3 11 171 10.7 171 9C171 7.2 170.3 7 164 7H157V29Z" fill="black"/>
<path d="M176 29V51H178.5H181V38.5V26H184.5C187.3 26 188 25.6 188 24C188 22.4 187.3 22 184.5 22H181V16.5V11H185.5C189.3 11 190 10.7 190 9C190 7.2 189.3 7 183 7H176V29Z" fill="black"/>
<path d="M195 29V51H197.5H200V29V7H197.5H195V29Z" fill="black"/>
<path d="M206 29V51H213C219.3 51 220 50.8 220 49C220 47.3 219.3 47 215 47H210V27C210 7.7 209.9 7 208 7C206.1 7 206 7.7 206 29Z" fill="black"/>
<path d="M224 29C224 50.3 224.1 51 226 51C227.9 51 228 50.3 228 31C228 19 228.4 11 229 11C230 11 230.4 12.6 232.8 28.5L234.5 39.5L238.5 39.8L242.5 40.1L244.7 26.4C247.9 5.9 249 6.9 249 30.8C249 50.3 249.1 51 251 51C252.9 51 253 50.3 253 28.9V6.9L248.3 7.2L243.6 7.5L241.4 21.5C240.1 29.2 239.1 35.7 239 36C238.5 37.7 237 30.8 235.4 19.7L233.6 7H228.8H224V29Z" fill="black"/>
<path d="M261.2 8.6C259.3 9.9 259 11 259 16.5C259 22 259.3 23.1 261.2 24.4C262.4 25.3 264.9 26 266.7 26H270V36.5V47H266.5H263V39.5C263 32.7 262.8 32 261 32C259.2 32 259 32.7 259 40.5C259 50.1 259.7 51 266.7 51C273.8 51 274.5 49.8 274.5 36.5C274.5 23.2 273.8 22 266.8 22H262.9L263.2 16.7C263.5 11.6 263.6 11.5 266.8 11.2C269.8 10.9 270 11.1 270 13.9C270 16.6 270.4 17 272.6 17C275.1 17 275.2 16.8 274.7 13.3C274.3 11.2 273.3 8.9 272.3 8.3C270 6.5 263.9 6.7 261.2 8.6Z" fill="black"/>
<path d="M0 36V57H12.5H25V36V15H12.5H0V36Z" fill="black"/>
<path d="M29 37V58H57.5H86V37V16H57.5H29V37ZM59.5 28.2C67.5 32.2 74 36 74 36.7C74 38.4 46.2 52.3 44.4 51.6C42.2 50.7 42.4 21 44.7 21C44.8 21 51.5 24.3 59.5 28.2Z" fill="black"/>
<path d="M89 37V58H101.5H114V37V16H101.5H89V37Z" fill="black"/>
<path d="M0 62C0 62.5 0.5 63 1 63C1.6 63 2 64.6 2 66.5C2 68.4 1.6 70 1 70C0.5 70 0 70.7 0 71.5C0 72.8 7 73 57 73C107 73 114 72.8 114 71.5C114 70.5 113 70 111 70C108.2 70 108 69.7 108 66.5C108 63.3 108.2 63 111 63C112.7 63 114 62.5 114 62C114 61.3 94.3 61 57 61C19.7 61 0 61.3 0 62ZM16 66.5C16 70 16 70 11.5 70C7 70 7 70 7 66.5C7 63 7 63 11.5 63C16 63 16 63 16 66.5ZM31 66.5V70H26H21V66.5V63H26H31V66.5ZM45 66.5V70H40H35V66.5V63H40H45V66.5ZM61 66.5V70H55H49V66.5V63H55H61V66.5ZM75 66.5V70H70H65V66.5V63H70H75V66.5ZM89 66.5V70H84H79V66.5V63H84H89V66.5ZM103 66.5V70H98H93V66.5V63H98H103V66.5Z" fill="black"/>
<path d="M136 70C136 72 136.7 72 205.5 72C274.3 72 275 72 275 70C275 68 274.3 68 205.5 68C136.7 68 136 68 136 70Z" fill="black"/>
</svg>
